<svg width="15" height="15" viewBox="0 0 15 15" fill="none" xmlns="http://www.w3.org/2000/svg">
<path d="M7.5 15C6.01664 15 4.56659 14.5601 3.33322 13.736C2.09985 12.9119 1.13856 11.7406 0.570904 10.3701C0.00324631 8.99968 -0.145279 7.49168 0.144111 6.03682C0.433499 4.58197 1.14781 3.24559 2.1967 2.1967C3.24559 1.14781 4.58196 0.4335 6.03682 0.144111C7.49168 -0.145279 8.99968 0.00324608 10.3701 0.570903C11.7406 1.13856 12.9119 2.09985 13.736 3.33322C14.5601 4.56659 15 6.01664 15 7.5L12 7.5C12 6.60998 11.7361 5.73995 11.2416 4.99993C10.7471 4.25991 10.0443 3.68314 9.22207 3.34254C8.39981 3.00195 7.49501 2.91283 6.62209 3.08647C5.74918 3.2601 4.94736 3.68868 4.31802 4.31802C3.68868 4.94736 3.2601 5.74918 3.08647 6.62209C2.91283 7.49501 3.00195 8.39981 3.34254 9.22208C3.68314 10.0443 4.25991 10.7471 4.99993 11.2416C5.73995 11.7361 6.60998 12 7.5 12L7.5 15Z" fill="white"/>
<circle cx="1.5" cy="1.5" r="1.5" transform="matrix(-1 0 0 1 15.0001 8.39996)" fill="white"/>
<circle cx="1.5" cy="1.5" r="1.5" transform="matrix(-1 0 0 1 15.0001 12)" fill="white"/>
<circle cx="1.5" cy="1.5" r="1.5" transform="matrix(-1 0 0 1 11.2501 12)" fill="white"/>
</svg>
