<svg width="76" height="16" viewBox="0 0 76 16" fill="none" xmlns="http://www.w3.org/2000/svg">
<path d="M7.5 15C6.01664 15 4.56659 14.5601 3.33322 13.736C2.09985 12.9119 1.13856 11.7406 0.570904 10.3701C0.00324631 8.99968 -0.145279 7.49168 0.144111 6.03682C0.433499 4.58197 1.14781 3.24559 2.1967 2.1967C3.24559 1.14781 4.58196 0.4335 6.03682 0.144111C7.49168 -0.145279 8.99968 0.00324608 10.3701 0.570903C11.7406 1.13856 12.9119 2.09985 13.736 3.33322C14.5601 4.56659 15 6.01664 15 7.5L12 7.5C12 6.60998 11.7361 5.73995 11.2416 4.99993C10.7471 4.25991 10.0443 3.68314 9.22207 3.34254C8.39981 3.00195 7.49501 2.91283 6.62209 3.08647C5.74918 3.2601 4.94736 3.68868 4.31802 4.31802C3.68868 4.94736 3.2601 5.74918 3.08647 6.62209C2.91283 7.49501 3.00195 8.39981 3.34254 9.22208C3.68314 10.0443 4.25991 10.7471 4.99993 11.2416C5.73995 11.7361 6.60998 12 7.5 12L7.5 15Z" fill="white"/>
<circle cx="1.5" cy="1.5" r="1.5" transform="matrix(-1 0 0 1 15.0001 8.39996)" fill="white"/>
<circle cx="1.5" cy="1.5" r="1.5" transform="matrix(-1 0 0 1 15.0001 12)" fill="white"/>
<circle cx="1.5" cy="1.5" r="1.5" transform="matrix(-1 0 0 1 11.2501 12)" fill="white"/>
<path d="M68.204 14.134H69.156C69.3987 14.134 69.576 14.0966 69.688 14.022C69.8093 13.9473 69.9073 13.8213 69.982 13.644L70.178 13.126H69.66L67 5.94397H68.848L70.738 11.446L72.516 5.94397H74.378L71.452 14.204C71.2933 14.6706 71.06 15.0066 70.752 15.212C70.444 15.4173 70.0193 15.52 69.478 15.52H68.204V14.134Z" fill="white"/>
<path d="M54.604 13.588C53.8107 13.588 53.176 13.4107 52.7 13.056C52.2333 12.692 52 12.188 52 11.544C52 10.9093 52.196 10.41 52.588 10.046C52.9893 9.682 53.6053 9.416 54.436 9.248L56.914 8.758C56.914 8.226 56.7927 7.82933 56.55 7.568C56.3073 7.29733 55.9527 7.162 55.486 7.162C55.0567 7.162 54.716 7.26 54.464 7.456C54.212 7.652 54.044 7.94133 53.96 8.324L52.126 8.24C52.266 7.44667 52.6253 6.84 53.204 6.42C53.792 5.99067 54.5527 5.776 55.486 5.776C56.5407 5.776 57.3387 6.042 57.88 6.574C58.4307 7.106 58.706 7.876 58.706 8.884V11.6C58.706 11.796 58.7387 11.9313 58.804 12.006C58.8787 12.0807 58.986 12.118 59.126 12.118H59.364V13.42C59.2987 13.4387 59.2053 13.4527 59.084 13.462C58.9627 13.4713 58.8413 13.476 58.72 13.476C58.2067 13.476 57.81 13.35 57.53 13.098C57.2593 12.846 57.124 12.412 57.124 11.796L57.278 11.908C57.166 12.4027 56.8627 12.8087 56.368 13.126C55.8827 13.434 55.2947 13.588 54.604 13.588ZM54.968 12.286C55.3693 12.286 55.7147 12.2067 56.004 12.048C56.2933 11.8893 56.5173 11.67 56.676 11.39C56.8347 11.1007 56.914 10.7693 56.914 10.396V9.976L54.982 10.368C54.59 10.4427 54.3053 10.564 54.128 10.732C53.9507 10.9 53.862 11.1147 53.862 11.376C53.862 11.6653 53.9553 11.8893 54.142 12.048C54.338 12.2067 54.6133 12.286 54.968 12.286Z" fill="white"/>
<path d="M44 5.944H45.624L45.694 8.044L45.484 7.96C45.596 7.21333 45.8667 6.66267 46.296 6.308C46.7253 5.95333 47.262 5.776 47.906 5.776C48.7087 5.776 49.334 6.03267 49.782 6.546C50.23 7.05933 50.454 7.75 50.454 8.618V13.42H48.662V9.192C48.662 8.52933 48.5593 8.03933 48.354 7.722C48.158 7.39533 47.8267 7.232 47.36 7.232C46.8747 7.232 46.492 7.40467 46.212 7.75C45.932 8.086 45.792 8.56667 45.792 9.192V13.42H44V5.944Z" fill="white"/>
<path d="M38 5.94397H39.68L39.75 8.01597L39.596 7.98797C39.708 7.27864 39.918 6.76064 40.226 6.43397C40.534 6.1073 40.9633 5.94397 41.514 5.94397H42.9453V7.48397H41.5C41.108 7.48397 40.786 7.53997 40.534 7.65197C40.2913 7.76397 40.1047 7.9413 39.974 8.18397C39.8527 8.42664 39.792 8.73464 39.792 9.10797V13.42H38V5.94397Z" fill="white"/>
<path d="M61 6H62.68L62.75 8.072L62.596 8.044C62.708 7.33467 62.918 6.81667 63.226 6.49C63.534 6.16333 63.9633 6 64.514 6H65.9453V7.54H64.5C64.108 7.54 63.786 7.596 63.534 7.708C63.2913 7.82 63.1047 7.99733 62.974 8.24C62.8527 8.48267 62.792 8.79067 62.792 9.164V13.476H61V6Z" fill="white"/>
<path d="M32.668 13.588C31.9307 13.588 31.2867 13.4293 30.736 13.112C30.1853 12.7853 29.756 12.328 29.448 11.74C29.1493 11.152 29 10.466 29 9.682C29 8.90733 29.1493 8.226 29.448 7.638C29.756 7.04067 30.1807 6.58333 30.722 6.266C31.2727 5.93933 31.9073 5.776 32.626 5.776C33.3353 5.776 33.956 5.93467 34.488 6.252C35.0293 6.56933 35.4447 7.03133 35.734 7.638C36.0327 8.24467 36.182 8.95867 36.182 9.78V10.186H30.862C30.89 10.83 31.0627 11.32 31.38 11.656C31.7067 11.992 32.1407 12.16 32.682 12.16C33.0833 12.16 33.4147 12.0713 33.676 11.894C33.9373 11.7167 34.124 11.46 34.236 11.124L36.07 11.236C35.874 11.964 35.4727 12.538 34.866 12.958C34.2593 13.378 33.5267 13.588 32.668 13.588ZM34.32 8.982C34.2827 8.394 34.1147 7.95067 33.816 7.652C33.5173 7.344 33.1207 7.19 32.626 7.19C32.1407 7.19 31.7393 7.344 31.422 7.652C31.114 7.96 30.9273 8.40333 30.862 8.982H34.32Z" fill="white"/>
<path d="M23.01 5.06198H20V3.47998H27.854V5.06198H24.83V13.42H23.01V5.06198Z" fill="white"/>
</svg>
